# xmcd
#
# Track frame offsets: 
#        150
#        13685
#        27720
#        40904
#        54347
#        67413
#        78689
#        92533
#        105566
#        118875
#        129258
#        138838
#        152445
#        165674
#        179054
#        190311
#        204784
#        217956
#        231587
#        242328
#        253968
#        267721
#        281525
#        293532
#        306932
#
# Disc length: 4246 seconds
#
# Revision: 2
# Processed by: cddbd v1.5.2PL0 Copyright (c) Steve Scherf et al.
# Submitted via: ExactAudioCopyFreeDBPlugin 1.0
#
DISCID=72109419
DTITLE=Various Artist - The Dawn of Doo-Wop [Proper Records]
DYEAR=2002
DGENRE=Rhythm and Blues
TTITLE0=The Orioles - Its' Too Soon to Know
TTITLE1=The Ravens - Be I Bumble Bee or Not
TTITLE2=The Swallows - Will You Be Mine
TTITLE3=The Larks - When I Leave These Prison Walls
TTITLE4=The Robins - I'm Through
TTITLE5=The Ravens - Careless Love
TTITLE6=The Orioles - I'm Just a Fool in Love
TTITLE7=The Larks - Eyesight to the Blind
TTITLE8=The Swallows - Dearest
TTITLE9=The Ravens - Someday
TTITLE10=The Orioles - Hold Me Squeeze Me
TTITLE11=The Robins - School Girl Blues
TTITLE12=The Swallows - Wishing for You
TTITLE13=The Larks - Darlin'
TTITLE14=The Ravens - I'm Gonna Take to the Road
TTITLE15=The Robins - If I Didn't Love You So
TTITLE16=The Orioles - What Are You Doing New Year's Eve
TTITLE17=The Swallows - Since You've Been Away
TTITLE18=The Larks - My Reverie
TTITLE19=The Robins - Our Romance is Over
TTITLE20=The Ravens - If You Didn't Mean It
TTITLE21=The Orioles - I Miss You So
TTITLE22=The Swallows - Eternally
TTITLE23=The Robins - There's Rain in My Eyes
TTITLE24=The Larks - Coffee, Cigarettes and Tears
EXTD=ID3G: 14
EXTT0=
EXTT1=
EXTT2=
EXTT3=
EXTT4=
EXTT5=
EXTT6=
EXTT7=
EXTT8=
EXTT9=
EXTT10=
EXTT11=
EXTT12=
EXTT13=
EXTT14=
EXTT15=
EXTT16=
EXTT17=
EXTT18=
EXTT19=
EXTT20=
EXTT21=
EXTT22=
EXTT23=
EXTT24=
PLAYORDER=
